<svg width="287" height="287" viewBox="0 0 287 287" fill="none" xmlns="http://www.w3.org/2000/svg">
<path d="M151.952 69.6337C144.82 68.9162 138.721 74.7925 138.721 81.9603V82.5558C138.721 82.5901 138.708 82.6229 138.684 82.6472C138.659 82.6714 138.627 82.685 138.592 82.685H132.888C130.802 82.7068 128.782 83.4245 127.15 84.7242C125.517 86.0239 124.365 87.8314 123.876 89.86C123.87 89.8879 123.855 89.9129 123.833 89.931C123.81 89.9492 123.783 89.9596 123.754 89.9604H107.367C105.083 89.9604 102.893 90.8676 101.279 92.4822C99.6638 94.0969 98.7567 96.2869 98.7567 98.5704V198.303C98.7567 200.586 99.6638 202.776 101.279 204.391C102.893 206.006 105.083 206.913 107.367 206.913H193.725C196.009 206.913 198.199 206.006 199.813 204.391C201.428 202.776 202.335 200.586 202.335 198.303V98.5704C202.335 96.2869 201.428 94.0969 199.813 92.4822C198.199 90.8676 196.009 89.9604 193.725 89.9604H177.309C177.279 89.9592 177.251 89.9478 177.229 89.9282C177.206 89.9086 177.192 89.882 177.187 89.8528C176.841 87.8048 175.767 85.9506 174.163 84.6321C172.558 83.3135 170.531 82.6195 168.455 82.6778H162.758C162.723 82.6778 162.691 82.6642 162.666 82.64C162.642 82.6158 162.629 82.5829 162.629 82.5487V81.5083C162.662 78.5509 161.583 75.689 159.605 73.4897C157.628 71.2904 154.896 69.9141 151.952 69.6337V69.6337ZM196.437 98.5561V198.289C196.437 199.012 196.153 199.706 195.645 200.222C195.138 200.737 194.448 201.032 193.725 201.044H107.367C106.637 201.044 105.938 200.754 105.421 200.239C104.905 199.724 104.613 199.025 104.612 198.296V98.5633C104.612 98.2014 104.683 97.8432 104.821 97.5089C104.96 97.1746 105.163 96.8709 105.418 96.615C105.674 96.3592 105.978 96.1562 106.312 96.0178C106.647 95.8793 107.005 95.8081 107.367 95.8081H123.41C123.427 95.8081 123.444 95.8114 123.459 95.8179C123.475 95.8244 123.489 95.8339 123.501 95.8459C123.513 95.8579 123.523 95.8721 123.529 95.8878C123.536 95.9034 123.539 95.9202 123.539 95.9372V103.557C123.537 103.59 123.523 103.621 123.499 103.644C123.475 103.666 123.443 103.679 123.41 103.679H114.649C114.616 103.681 114.585 103.695 114.563 103.719C114.54 103.743 114.527 103.775 114.527 103.808V193.044C114.527 193.077 114.54 193.109 114.563 193.133C114.585 193.157 114.616 193.171 114.649 193.173H186.399C186.416 193.173 186.432 193.169 186.448 193.163C186.463 193.156 186.477 193.147 186.488 193.135C186.5 193.122 186.508 193.108 186.514 193.093C186.52 193.077 186.522 193.06 186.521 193.044V103.801C186.522 103.784 186.52 103.768 186.514 103.752C186.508 103.736 186.5 103.722 186.488 103.71C186.477 103.698 186.463 103.688 186.448 103.682C186.432 103.675 186.416 103.672 186.399 103.672H177.624C177.591 103.672 177.559 103.659 177.535 103.637C177.511 103.614 177.497 103.583 177.495 103.55V95.93C177.495 95.9131 177.499 95.8963 177.505 95.8806C177.511 95.8649 177.521 95.8507 177.533 95.8387C177.545 95.8267 177.559 95.8172 177.575 95.8107C177.591 95.8042 177.607 95.8009 177.624 95.8009H193.725C194.45 95.8103 195.141 96.1048 195.65 96.6204C196.159 97.1361 196.444 97.8315 196.444 98.5561H196.437ZM123.561 109.505H180.573C180.607 109.505 180.64 109.519 180.665 109.543C180.689 109.567 180.702 109.6 180.702 109.634V187.218C180.702 187.234 180.699 187.251 180.692 187.266C180.686 187.281 180.676 187.295 180.664 187.306C180.652 187.318 180.638 187.327 180.622 187.332C180.606 187.338 180.59 187.341 180.573 187.34H120.483C120.466 187.341 120.449 187.338 120.434 187.332C120.418 187.327 120.404 187.318 120.392 187.306C120.38 187.295 120.37 187.281 120.363 187.266C120.357 187.251 120.353 187.234 120.353 187.218V109.634C120.353 109.6 120.367 109.567 120.391 109.543C120.416 109.519 120.448 109.505 120.483 109.505H123.561ZM168.333 88.5183C169.214 88.522 170.059 88.874 170.683 89.4975C171.306 90.1211 171.658 90.9657 171.662 91.8475V103.55C171.66 103.582 171.647 103.612 171.624 103.634C171.602 103.657 171.572 103.67 171.54 103.672H129.523C129.49 103.672 129.458 103.659 129.434 103.637C129.41 103.614 129.396 103.583 129.394 103.55V91.8403C129.398 90.9572 129.751 90.1116 130.376 89.4878C131.001 88.8641 131.847 88.513 132.73 88.5111H144.131C144.166 88.5111 144.199 88.4975 144.223 88.4733C144.247 88.449 144.261 88.4162 144.261 88.3819V81.5083C144.261 79.8851 144.905 78.3284 146.053 77.1806C147.201 76.0328 148.758 75.388 150.381 75.388C152.004 75.388 153.561 76.0328 154.709 77.1806C155.856 78.3284 156.501 79.8851 156.501 81.5083V88.3819C156.501 88.4162 156.515 88.449 156.539 88.4733C156.563 88.4975 156.596 88.5111 156.63 88.5111L168.333 88.5183Z" fill="black"/>
<path d="M147.303 143.5H174.74C174.812 143.5 174.869 143.5 174.869 143.5V144.72C174.869 144.72 174.812 144.72 174.74 144.72H147.303C147.231 144.72 147.174 144.72 147.174 144.72V143.5C147.174 143.5 147.231 143.5 147.303 143.5Z" fill="black"/>
<path d="M129.81 157.606H139.468C139.539 157.606 139.597 157.606 139.597 157.671V160.462C139.597 160.462 139.539 160.52 139.468 160.52H129.81C129.738 160.52 129.681 160.519 129.681 160.462V157.671C129.681 157.635 129.738 157.606 129.81 157.606Z" fill="black"/>
<path d="M147.303 159.084H174.74C174.812 159.084 174.869 159.084 174.869 159.12V160.49C174.869 160.49 174.812 160.49 174.74 160.49H147.303C147.231 160.49 147.174 160.49 147.174 160.49V159.12C147.174 159.12 147.231 159.084 147.303 159.084Z" fill="black"/>
<path d="M129.81 173.742H139.468C139.539 173.742 139.597 173.742 139.597 173.8V176.21C139.597 176.21 139.539 176.261 139.468 176.261H129.81C129.738 176.261 129.681 176.261 129.681 176.21V173.8C129.681 173.8 129.738 173.742 129.81 173.742Z" fill="black"/>
<path d="M147.303 174.747H174.74C174.812 174.747 174.869 174.747 174.869 174.747V176.182C174.869 176.182 174.812 176.182 174.74 176.182H147.303C147.231 176.182 147.174 176.182 147.174 176.182V174.747C147.174 174.747 147.231 174.747 147.303 174.747Z" fill="black"/>
<path d="M139.626 140.573L137.552 138.478C137.546 138.472 137.539 138.467 137.531 138.463C137.523 138.46 137.514 138.458 137.505 138.458C137.497 138.458 137.488 138.46 137.48 138.463C137.472 138.467 137.465 138.472 137.459 138.478L133.993 141.943C133.979 141.954 133.961 141.96 133.943 141.96C133.925 141.96 133.907 141.954 133.893 141.943L131.826 139.913C131.813 139.9 131.795 139.892 131.776 139.892C131.757 139.892 131.739 139.9 131.726 139.913L129.659 141.986C129.653 141.993 129.648 142 129.645 142.008C129.641 142.016 129.64 142.024 129.64 142.033C129.64 142.042 129.641 142.05 129.645 142.058C129.648 142.067 129.653 142.074 129.659 142.08L133.893 146.32C133.906 146.333 133.924 146.341 133.943 146.341C133.962 146.341 133.98 146.333 133.993 146.32L139.626 140.688C139.64 140.672 139.647 140.652 139.647 140.63C139.647 140.609 139.64 140.589 139.626 140.573V140.573Z" fill="black"/>
<path d="M147.884 129.329H153.459C153.493 129.329 153.526 129.316 153.55 129.292C153.574 129.267 153.588 129.235 153.588 129.2V123.92C153.588 123.903 153.591 123.886 153.598 123.87C153.604 123.854 153.614 123.84 153.626 123.828C153.638 123.816 153.652 123.807 153.668 123.8C153.683 123.794 153.7 123.79 153.717 123.79H158.998C159.032 123.79 159.065 123.777 159.089 123.753C159.114 123.728 159.127 123.695 159.127 123.661V118.086C159.127 118.052 159.114 118.019 159.089 117.995C159.065 117.971 159.032 117.957 158.998 117.957H153.717C153.684 117.957 153.652 117.945 153.628 117.922C153.604 117.899 153.59 117.868 153.588 117.835V112.547C153.588 112.53 153.585 112.513 153.578 112.498C153.572 112.482 153.562 112.468 153.55 112.456C153.538 112.444 153.524 112.434 153.508 112.428C153.493 112.421 153.476 112.418 153.459 112.418H147.884C147.851 112.42 147.82 112.434 147.797 112.458C147.775 112.482 147.762 112.514 147.762 112.547V117.835C147.76 117.868 147.746 117.899 147.722 117.922C147.698 117.945 147.666 117.957 147.633 117.957H142.345C142.312 117.959 142.281 117.973 142.258 117.997C142.235 118.021 142.223 118.053 142.223 118.086V123.661C142.223 123.694 142.235 123.726 142.258 123.75C142.281 123.774 142.312 123.789 142.345 123.79H147.633C147.65 123.79 147.667 123.794 147.682 123.8C147.698 123.807 147.712 123.816 147.724 123.828C147.736 123.84 147.746 123.854 147.752 123.87C147.759 123.886 147.762 123.903 147.762 123.92V129.2C147.762 129.233 147.775 129.265 147.797 129.289C147.82 129.313 147.851 129.328 147.884 129.329V129.329Z" fill="black"/>
</svg>
