<svg width="144" height="136" viewBox="0 0 144 136" fill="none" xmlns="http://www.w3.org/2000/svg">
<path d="M91.3426 35.1748H73.1519V39.2176H91.3426C91.6082 39.2176 91.8711 39.27 92.1163 39.3717C92.3616 39.4734 92.5844 39.6225 92.772 39.8104C92.9596 39.9983 93.1083 40.2214 93.2095 40.4668C93.3108 40.7123 93.3627 40.9753 93.3622 41.2408V85.7008C93.3622 86.2368 93.1496 86.7508 92.7709 87.1301C92.3923 87.5095 91.8786 87.723 91.3426 87.724H73.1519V91.7632H91.3426C92.9505 91.7632 94.4925 91.1245 95.6294 89.9876C96.7663 88.8506 97.405 87.3086 97.405 85.7008V41.2408C97.4055 40.4444 97.2491 39.6557 96.9446 38.9197C96.6402 38.1838 96.1937 37.515 95.6307 36.9517C95.0677 36.3884 94.3992 35.9415 93.6635 35.6366C92.9277 35.3317 92.1391 35.1748 91.3426 35.1748Z" fill="black"/>
<path d="M73.1519 76.4055L83.2571 66.3003C84.0096 65.5429 84.4319 64.5186 84.4319 63.4509C84.4319 62.3833 84.0096 61.3589 83.2571 60.6015L73.1519 50.4963L70.2215 53.3763L78.3071 61.4583L50.1767 63.2583L48.8987 65.4903H78.3863L70.3007 73.5759L73.1519 76.4055Z" fill="black"/>
</svg>
