<svg width="144" height="136" viewBox="0 0 144 136" fill="none" xmlns="http://www.w3.org/2000/svg">
<path d="M94.4821 73.4967L96.2317 68.0571C96.2317 67.9671 96.2569 67.8771 96.2713 67.7871C96.2857 67.6971 96.2713 67.7151 96.2893 67.6791C96.3469 67.2975 96.3937 66.9195 96.4333 66.5379C96.4333 66.5199 96.4333 66.4983 96.4333 66.4803C96.4765 66.0843 96.5053 65.6847 96.5269 65.2887V65.2383C96.5485 64.8471 96.5593 64.4547 96.5593 64.0611V63.6399C96.5593 63.4671 96.5593 63.2979 96.5413 63.1287C96.5413 63.0207 96.5413 62.9163 96.5413 62.8119C96.5413 62.6031 96.5232 62.3943 96.5088 62.1855C96.5071 62.164 96.5071 62.1423 96.5088 62.1207C96.5088 62.0595 96.5088 61.9983 96.5088 61.9371C96.5088 61.8759 96.4837 61.7139 96.4729 61.6023C96.4745 61.5784 96.4745 61.5543 96.4729 61.5303C96.4746 61.5172 96.4746 61.5039 96.4729 61.4907C96.4729 61.4331 96.4729 61.3791 96.4729 61.3215C96.4729 61.2639 96.4729 61.1847 96.4513 61.1163C96.4297 61.0479 96.4513 61.0443 96.4513 61.0083C96.4513 60.9723 96.4513 60.9291 96.4513 60.8895C96.4117 60.5799 96.3685 60.2739 96.3145 59.9679L102.19 55.6047C102.522 55.4147 102.814 55.1608 103.049 54.8576C103.283 54.5545 103.456 54.208 103.556 53.8381C103.657 53.4682 103.683 53.0822 103.634 52.7021C103.585 52.322 103.461 51.9553 103.27 51.6231L98.4096 43.2135C97.6068 41.8167 91.9297 46.6011 90.5293 47.4075L87.7141 45.0531C87.6781 45.0207 87.6349 44.9955 87.5989 44.9667L87.5485 44.9235L87.2821 44.7183L86.9941 44.4915L86.7565 44.3151L86.6449 44.2323L86.4469 44.0883L86.3389 44.0091L86.0653 43.8183L85.9933 43.7679L85.8745 43.6851L85.4677 43.4151L85.4209 43.3863C85.1977 43.2423 84.9745 43.1019 84.7477 42.9651C84.6361 42.8967 84.5245 42.8391 84.4093 42.7599C84.0015 42.4877 83.5688 42.2551 83.1169 42.0651L83.0485 42.0327C82.3885 41.7015 81.7129 41.4015 81.0217 41.1327L80.964 41.1111L80.7013 41.0031L79.8589 33.7311C79.8589 32.9587 79.552 32.2179 79.0058 31.6717C78.4596 31.1256 77.7189 30.8187 76.9465 30.8187H67.2265C65.6173 30.8187 67.1761 37.7091 67.1761 39.3183L63.4716 41.0031L63.3565 41.0499L63.2196 41.1039C62.9496 41.2083 62.6868 41.3163 62.4204 41.4315L62.28 41.4927C62.0424 41.5971 61.8048 41.7015 61.56 41.8131L61.4844 41.8491L61.3908 41.8923L61.1353 42.0219C60.9373 42.1191 60.7428 42.2199 60.5484 42.3243C60.408 42.3999 60.264 42.4719 60.1236 42.5511L59.8608 42.7023L59.8104 42.7275L59.7276 42.7815C59.4072 42.9651 59.094 43.1415 58.7844 43.3575L58.68 43.4259L58.572 43.4943L58.5432 43.5123C58.2768 43.6887 58.0176 43.8723 57.7584 44.0523L57.6504 44.1315C57.3624 44.3403 57.078 44.5563 56.7972 44.7795C56.6856 44.8659 56.574 44.9559 56.4768 45.0423L49.68 42.1371C49.3479 41.946 48.9812 41.8223 48.6011 41.7731C48.221 41.7239 47.835 41.7503 47.4651 41.8506C47.0952 41.9509 46.7487 42.1233 46.4456 42.3578C46.1424 42.5923 45.8885 42.8843 45.6984 43.2171L40.8384 51.6267C40.0356 53.0235 46.2384 53.4051 47.6172 54.2079L47.7756 59.9679C47.7504 60.1227 47.7288 60.2703 47.7072 60.4179C47.6604 60.7527 47.6172 61.0875 47.5812 61.4223C47.5812 61.4979 47.5812 61.5771 47.556 61.6563C47.5272 61.9407 47.502 62.2287 47.4876 62.5167V62.5599C47.4894 62.5851 47.4894 62.6104 47.4876 62.6355V62.8623C47.4876 63.1971 47.4876 63.5355 47.4624 63.8703C47.4624 63.9135 47.4624 63.9567 47.4624 63.9999C47.4624 64.0431 47.4624 64.1007 47.4624 64.1547V64.3923C47.4624 64.5291 47.4624 64.6695 47.4624 64.8099C47.4624 64.9503 47.4624 65.1699 47.4876 65.3499C47.5128 65.5299 47.4876 65.6523 47.5128 65.8035C47.5128 65.8251 47.5128 65.8467 47.5128 65.8683C47.5128 65.8899 47.5128 66.0159 47.5308 66.0915C47.5488 66.1671 47.5524 66.2823 47.5596 66.3795C47.5812 66.5955 47.6028 66.8115 47.628 67.0239C47.6712 67.3623 47.718 67.6971 47.7756 68.0319L41.9076 72.3915C41.5745 72.5812 41.2821 72.835 41.0473 73.1381C40.8126 73.4412 40.64 73.7877 40.5397 74.1577C40.4393 74.5278 40.4131 74.914 40.4625 75.2942C40.5119 75.6744 40.636 76.0411 40.8276 76.3731L45.684 84.7827C46.4868 86.1795 50.9976 78.8751 52.3908 78.0687L56.3688 82.9503C56.4156 82.9863 56.466 83.0187 56.5128 83.0583L56.5344 83.0763L56.754 83.2491C56.8692 83.3391 56.9808 83.4327 57.114 83.5191L57.3157 83.6703L57.5857 83.8719L57.6144 83.8935L57.744 83.9871L58.0572 84.2031L58.086 84.2211L58.2084 84.3075C58.5684 84.5595 58.9537 84.8007 59.3353 85.0275L59.5368 85.1463C60.0168 85.4319 60.5076 85.6995 61.0092 85.9491L61.0596 85.9743C61.8187 86.3549 62.5974 86.6949 63.3924 86.9931L64.2348 94.2543C64.2348 95.0271 64.5416 95.7682 65.0877 96.315C65.6337 96.8617 66.3745 97.1694 67.1473 97.1703H76.8673C78.4765 97.1703 74.2789 89.9703 74.2789 88.3611L80.6221 86.9931L80.7444 86.9463L80.8669 86.8959C81.1369 86.7915 81.4033 86.6835 81.6697 86.5683C81.7381 86.5431 81.8065 86.5107 81.8713 86.4819C82.1017 86.3883 82.3285 86.2839 82.5517 86.1723L82.6021 86.1471L82.6777 86.1147L82.9513 85.9779C83.1457 85.8807 83.3365 85.7799 83.5273 85.6791L83.9629 85.4487L84.1789 85.3227L84.2544 85.2795L84.2905 85.2615L84.3517 85.2219C84.6829 85.0311 85.0105 84.8295 85.3309 84.6243L85.4029 84.5775L85.5541 84.4803C85.8241 84.3039 86.0941 84.1203 86.3605 83.9259L86.4361 83.8683C86.7337 83.6523 87.0289 83.4291 87.3217 83.1987L87.4369 83.1051L87.6349 82.9467L94.3201 85.8699C94.652 86.061 95.0183 86.1846 95.3982 86.2338C95.778 86.2829 96.1638 86.2565 96.5334 86.1562C96.903 86.0558 97.2491 85.8835 97.552 85.649C97.8548 85.4146 98.1083 85.1226 98.298 84.7899L103.158 76.3767C103.972 74.9979 95.8753 74.2995 94.4821 73.4967ZM72.4248 84.3939C68.4392 84.4125 64.5377 83.2475 61.2148 81.0466C57.8919 78.8456 55.297 75.7079 53.7591 72.0309C52.2212 68.3538 51.8093 64.303 52.5758 60.3917C53.3422 56.4804 55.2525 52.8846 58.0645 50.06C60.8765 47.2353 64.4637 45.309 68.3715 44.525C72.2793 43.741 76.332 44.1347 80.0158 45.6562C83.6997 47.1776 86.8491 49.7583 89.0649 53.0714C91.2807 56.3844 92.4631 60.2806 92.4625 64.2663C92.4686 66.9037 91.9552 69.5164 90.9515 71.9553C89.9478 74.3942 88.4735 76.6115 86.6128 78.4806C84.752 80.3497 82.5414 81.8339 80.107 82.8485C77.6726 83.8631 75.0622 84.3883 72.4248 84.3939V84.3939Z" fill="black"/>
</svg>
