<svg width="287" height="287" viewBox="0 0 287 287" fill="none" xmlns="http://www.w3.org/2000/svg">
<path d="M217.137 188.939L204.853 201.223L189.305 185.674L214.131 160.849L209.388 156.106L196.703 168.792L123.08 95.1617L118.388 99.8398L105.236 93.4469L103.758 94.9249L95.5351 86.7023L93.2104 89.0271L66.8136 62.623L65.3786 64.058L91.7826 90.4621L88.97 93.2747L97.1926 101.497L95.7145 102.975L102.107 116.127L97.0347 121.207L170.665 194.83L157.979 207.515L162.722 212.258L187.885 187.102L203.426 202.643L190.812 215.25L195.999 220.437L222.325 194.112L217.137 188.939ZM91.84 93.2747L95.5638 89.5437L102.366 96.3456L98.6347 100.077L91.84 93.2747ZM100.063 101.497L103.786 97.7734L105.673 95.8864L116.831 101.303L103.593 114.541L98.1755 103.384L100.063 101.497ZM173.513 194.83L160.828 207.515L173.513 194.83L99.8832 121.207L123.08 98.0102L141.627 116.558L133.563 124.622L134.998 126.057L143.062 117.993L154.492 129.415L146.413 137.473L147.848 138.908L155.913 130.843L180.186 155.123L172.121 163.181L173.556 164.616L181.614 156.551L196.724 171.662L209.41 158.976L196.724 171.662L187.885 184.254L164.559 160.928L173.685 151.801L167.156 145.272L165.721 143.837L159.263 150.294L145.882 163.733L145.731 163.884L146.291 164.422L153.674 171.812L163.131 162.348L186.457 185.674L173.513 194.83ZM162.105 150.345L165.692 146.721L170.794 151.815L153.631 168.978L148.544 163.884L160.72 151.758L162.155 150.323L162.105 150.345ZM193.675 215.293L217.151 191.816L205.047 203.92L193.675 215.293Z" fill="black"/>
</svg>
