<svg width="144" height="126" viewBox="0 0 144 126" fill="none" xmlns="http://www.w3.org/2000/svg">
<path d="M72.0001 79.1205C85.8739 79.1205 97.1209 67.8735 97.1209 53.9997C97.1209 40.1259 85.8739 28.8789 72.0001 28.8789C58.1262 28.8789 46.8793 40.1259 46.8793 53.9997C46.8793 67.8735 58.1262 79.1205 72.0001 79.1205Z" stroke="black" stroke-width="2" stroke-miterlimit="10" stroke-linecap="round"/>
<path d="M77.1625 65.0192C77.0572 63.5529 77.026 62.0823 77.0689 60.6128C77.8321 60.2096 79.2037 57.6572 79.4341 55.4972C80.0353 55.4468 80.9821 54.86 81.2593 52.5452C81.4069 51.3032 80.8129 50.6048 80.4529 50.3852C81.4285 47.444 83.4589 38.3504 76.6981 37.4252C75.9997 36.2012 74.2177 35.582 71.9029 35.582C62.6365 35.7548 61.5169 42.5804 63.5473 50.3996C63.1873 50.6192 62.5933 51.3176 62.7409 52.5596C63.0217 54.8744 63.9649 55.4612 64.5661 55.5116C64.7965 57.6716 66.2221 60.224 66.9853 60.6272C67.0281 62.0967 66.9969 63.5673 66.8917 65.0336C65.5705 68.5796 58.7953 68.8568 54.8821 72.2804C58.9717 76.3952 65.5957 79.34 72.5869 79.34C79.5781 79.34 87.7969 73.8212 89.1649 72.3128C85.2805 68.846 78.4801 68.5796 77.1625 65.0192Z" fill="black"/>
</svg>
