<svg width="287" height="287" viewBox="0 0 287 287" fill="none" xmlns="http://www.w3.org/2000/svg">
<path d="M191.888 81.9668C193.532 81.9668 195.109 82.6199 196.272 83.7825C197.434 84.9451 198.087 86.5219 198.087 88.166V199.752C198.087 201.396 197.434 202.973 196.272 204.135C195.109 205.298 193.532 205.951 191.888 205.951H105.071C103.427 205.951 101.85 205.298 100.687 204.135C99.5246 202.973 98.8715 201.396 98.8715 199.752V187.353H86.5018V174.955H98.9002V162.556H86.5018V150.158H98.9002V137.76H86.5018V125.361H98.9002V112.963H86.5018V100.564L98.9002 101.131V88.166C98.9002 86.5219 99.5533 84.9451 100.716 83.7825C101.878 82.6199 103.455 81.9668 105.099 81.9668H191.888ZM185.689 94.3652L104.755 87.8431L111.277 193.552H193.79L185.689 94.3652ZM154.693 119.162V137.76H173.291V150.158H154.686V168.756H142.295V150.158H123.697V137.76H142.295V119.162H154.693Z" fill="black"/>
</svg>
